<?xml version="1.0" encoding="UTF-8"?>
<svg id="Livello_1" data-name="Livello 1" xmlns="http://www.w3.org/2000/svg" viewBox="0 0 381.87 365.57">
  <title>Olympic Mark logo</title>
  <defs>
    <style>
      .cls-1 {
        fill: #0870ed;
      }
    </style>
  </defs>
  <path class="cls-1" d="M89.13,179.37c-6.43,12.56-16.8,23.56-26.85,33.66l-28.57-84.35c-17.41,58.81.13,122.32,43.79,164.32,27.66,26.24,63.58,42.45,101.75,45.17,41.63,2.96,82.93-10.26,115.22-36.42,34.09-27.96,55.73-68.61,59.67-112.35,5.88-65.39-28.05-128.04-85.74-159.03l-.54-30.36c79.11,34.76,125.33,119.13,111.62,204.81-6.02,37.59-23.4,73-49.72,101.01-59.11,62.39-152.33,77.79-228.43,37.33-48.25-25.66-83.21-70.64-96-123.9C-5.17,175.56-.14,129.5,20.32,89.33c5.22-10.25,17.77-23.93,26.99-32.23l.76.66,41.06,121.61Z"/>
  <path class="cls-1" d="M203.22,108.06l.41-60.45-63.88,188.54-9.21-9.63c-5.74-6-10.57-12.6-14.71-20.11L185.06,1.37h55.23s0,286.31,0,286.31h-37.09s.02-179.62.02-179.62Z"/>
</svg>
